# xmcd
#
# Track frame offsets: 
#        150
#        16866
#        38031
#        62281
#        82719
#        106917
#        126445
#        150249
#        171191
#        187489
#        202078
#
# Disc length: 2937 seconds
#
# Revision: 0
# Processed by: cddbd v1.5.2PL0 Copyright (c) Steve Scherf et al.
# Submitted via: ExactAudioCopy v0.99pb5
#
DISCID=850b770b
DTITLE=Eric Street Band - The Journey
DYEAR=2009
DGENRE=Blues
TTITLE0=Can't get you out my Head
TTITLE1=Leaving
TTITLE2=Mr Blue
TTITLE3=Cardboard City
TTITLE4=What's going on within?
TTITLE5=The Journey
TTITLE6=Sunday Morning
TTITLE7=The Tallyman
TTITLE8=Hey Suzie
TTITLE9=Come Dance with Me
TTITLE10=Politicians Lament
EXTD=
EXTT0=
EXTT1=
EXTT2=
EXTT3=
EXTT4=
EXTT5=
EXTT6=
EXTT7=
EXTT8=
EXTT9=
EXTT10=
PLAYORDER=
